<?xml version="1.0" encoding="utf-8"?>
<!-- Generator: Adobe Illustrator 28.0.0, SVG Export Plug-In . SVG Version: 6.00 Build 0)  -->
<svg version="1.1" id="Layer_2_00000171696787423681718810000016500121597107413416_"
	 xmlns="http://www.w3.org/2000/svg" xmlns:xlink="http://www.w3.org/1999/xlink" x="0px" y="0px" viewBox="0 0 2810 900"
	 style="enable-background:new 0 0 2810 900;" xml:space="preserve">
<style type="text/css">
	.st0{fill:#3B3B3B;}
	.st1{fill:#FFFFFF;}
	.st2{fill:none;}
</style>
<g id="Layer_1-2">
	<rect class="st0" width="2810" height="900"/>
	<g>
		<polygon class="st1" points="668.1,385.5 577,329 631.7,297.4 719.2,348.1 		"/>
		<polygon class="st1" points="622.3,292 403.9,417.9 403.1,351.3 565.2,258.5 		"/>
		<polygon class="st1" points="622.3,593.1 566.4,632.4 403.1,539.9 403.1,429.7 468.7,392 468.7,504.1 		"/>
		<polygon class="st1" points="629.3,586.2 719.2,526.1 719.2,466 577.1,556.1 		"/>
		<circle class="st1" cx="2497.8" cy="136.5" r="49.2"/>
		<path class="st1" d="M969.5,478.7c0,80-55.4,114.9-107.7,114.9c-58.5,0-103.7-42.9-103.7-111.3c0-72.4,47.4-114.9,107.2-114.9
			S969.5,412.6,969.5,478.7L969.5,478.7z M797.9,481c0,47.4,27.3,83.1,65.7,83.1s65.7-35.3,65.7-84c0-36.6-18.3-83.1-64.8-83.1
			S797.9,439.8,797.9,481L797.9,481z"/>
		<path class="st1" d="M1005.3,430.9c0-22.4-0.5-40.7-1.8-58.5h34.9l2.2,35.8h0.9c10.7-20.6,35.8-40.7,71.5-40.7
			c29.9,0,76.4,17.9,76.4,92.1v129.2h-39.3V464c0-34.9-13-63.9-50.1-63.9c-25.9,0-46,18.3-52.7,40.2c-1.8,4.9-2.7,11.6-2.7,18.3v130
			h-39.3L1005.3,430.9L1005.3,430.9z"/>
		<path class="st1" d="M1266.7,372.4l42.4,121.6c7.2,19.7,13,37.5,17.4,55.4h1.3c4.9-17.9,11.2-35.8,18.3-55.4l42-121.6h41.1
			l-84.9,216.3h-37.5l-82.2-216.3H1266.7L1266.7,372.4z"/>
		<path class="st1" d="M1499.6,487.7c0.9,53.2,34.9,75.1,74.2,75.1c28.2,0,45.1-4.9,59.9-11.2l6.7,28.2
			c-13.8,6.3-37.5,13.4-71.9,13.4c-66.6,0-106.4-43.8-106.4-109s38.4-116.6,101.4-116.6c70.6,0,89.4,62.1,89.4,101.9
			c0,8-0.9,14.3-1.3,18.3L1499.6,487.7L1499.6,487.7z M1614.9,459.5c0.4-25-10.3-63.9-54.5-63.9c-39.8,0-57.2,36.6-60.3,63.9H1614.9
			z"/>
		<path class="st1" d="M1683.9,439.9c0-25.5-0.4-47.4-1.8-67.5h34.4l1.3,42.5h1.8c9.8-29,33.5-47.4,59.9-47.4
			c4.5,0,7.6,0.5,11.2,1.3v37.1c-4-0.9-8.1-1.3-13.4-1.3c-27.7,0-47.4,21-52.7,50.5c-0.9,5.4-1.8,11.6-1.8,18.3v115.3h-38.9
			L1683.9,439.9L1683.9,439.9z"/>
		<path class="st1" d="M1913.7,310.2v62.1h56.3v29.9h-56.3V519c0,26.8,7.6,42,29.5,42c10.3,0,17.9-1.3,22.8-2.7l1.8,29.5
			c-7.6,3.1-19.7,5.4-34.9,5.4c-18.3,0-33.1-5.8-42.4-16.5c-11.2-11.6-15.2-30.8-15.2-56.3v-118h-33.5v-29.9h33.5v-51.8
			L1913.7,310.2L1913.7,310.2z"/>
		<path class="st1" d="M2047.3,487.7c0.9,53.2,34.9,75.1,74.2,75.1c28.1,0,45.1-4.9,59.9-11.2l6.7,28.2
			c-13.9,6.3-37.5,13.4-71.9,13.4c-66.6,0-106.4-43.8-106.4-109s38.4-116.6,101.5-116.6c70.6,0,89.4,62.1,89.4,101.9
			c0,8-0.9,14.3-1.3,18.3L2047.3,487.7L2047.3,487.7z M2162.6,459.5c0.4-25-10.3-63.9-54.5-63.9c-39.8,0-57.2,36.6-60.3,63.9H2162.6
			z"/>
		<path class="st1" d="M2243.4,439.9c0-25.5-0.4-47.4-1.8-67.5h34.4l1.3,42.5h1.8c9.8-29,33.5-47.4,59.9-47.4
			c4.5,0,7.6,0.5,11.2,1.3v37.1c-4-0.9-8.1-1.3-13.4-1.3c-27.7,0-47.4,21-52.7,50.5c-0.9,5.4-1.8,11.6-1.8,18.3v115.3h-38.9
			L2243.4,439.9L2243.4,439.9z"/>
		<path class="st1" d="M950.5,772.5c-3.8,1.9-11.3,3.8-21,3.8c-22.4,0-39.3-14.2-39.3-40.3s16.9-41.8,41.6-41.8
			c9.9,0,16.2,2.1,18.9,3.5l-2.5,8.4c-3.9-1.9-9.5-3.3-16.1-3.3c-18.7,0-31,11.9-31,32.8c0,19.5,11.2,32,30.6,32
			c6.3,0,12.6-1.3,16.8-3.3L950.5,772.5L950.5,772.5z"/>
		<path class="st1" d="M1028.9,734.4c0,27.4-16.7,41.9-37,41.9s-35.8-16.3-35.8-40.4c0-25.3,15.7-41.8,37-41.8
			S1028.9,710.8,1028.9,734.4z M967.2,735.7c0,17,9.2,32.2,25.4,32.2s25.5-15,25.5-33.1c0-15.8-8.3-32.3-25.4-32.3
			S967.2,718.3,967.2,735.7L967.2,735.7z"/>
		<path class="st1" d="M1042.3,775.1v-79.6h11.2l25.5,40.3c5.9,9.3,10.5,17.7,14.3,25.9l0.2-0.1c-0.9-10.6-1.2-20.3-1.2-32.7v-33.3
			h9.7V775h-10.4l-25.3-40.4c-5.6-8.8-10.9-18-14.9-26.6l-0.3,0.1c0.6,10,0.8,19.6,0.8,32.8v34H1042.3L1042.3,775.1z"/>
		<path class="st1" d="M1141.4,775.1l-26-79.6h11.1l12.4,39.2c3.4,10.8,6.4,20.4,8.5,29.8h0.2c2.2-9.2,5.6-19.2,9.1-29.6l13.5-39.3
			h11l-28.5,79.6H1141.4L1141.4,775.1z"/>
		<path class="st1" d="M1234.9,737.8H1204v28.7h34.5v8.6h-44.8v-79.6h43v8.6H1204v25.2h30.9V737.8z"/>
		<path class="st1" d="M1259.7,696.8c5.2-1.1,12.6-1.7,19.7-1.7c11,0,18.1,2,23,6.5c4,3.5,6.3,9,6.3,15.1c0,10.5-6.6,17.5-15,20.3
			v0.4c6.1,2.1,9.8,7.8,11.7,16.1c2.6,11.1,4.5,18.8,6.1,21.8h-10.6c-1.3-2.2-3.1-9.1-5.3-19c-2.4-11-6.6-15.1-15.9-15.5h-9.7v34.5
			h-10.3L1259.7,696.8L1259.7,696.8z M1270,733.1h10.5c11,0,17.9-6,17.9-15.1c0-10.3-7.4-14.8-18.3-14.9c-5,0-8.5,0.5-10.2,1
			L1270,733.1L1270,733.1z"/>
		<path class="st1" d="M1345.3,704.2h-24.2v-8.7h58.9v8.7h-24.3v70.8h-10.4L1345.3,704.2L1345.3,704.2z"/>
		<path class="st1" d="M1432.7,750l-8.3,25h-10.6l27-79.6h12.4l27.2,79.6h-11l-8.5-25H1432.7L1432.7,750z M1458.8,742l-7.8-22.9
			c-1.8-5.2-2.9-9.9-4.1-14.5h-0.2c-1.2,4.7-2.5,9.6-4,14.4l-7.8,23H1458.8L1458.8,742z"/>
		<path class="st1" d="M1490.1,775.1v-79.6h11.2l25.5,40.3c5.9,9.3,10.5,17.7,14.3,25.9l0.2-0.1c-0.9-10.6-1.2-20.3-1.2-32.7v-33.3
			h9.7V775h-10.4l-25.3-40.4c-5.6-8.8-10.9-18-14.9-26.6l-0.3,0.1c0.6,10,0.8,19.6,0.8,32.8v34H1490.1L1490.1,775.1z"/>
		<path class="st1" d="M1586.7,775.1v-33.8l-25.2-45.8h11.7l11.2,22c3.1,6,5.4,10.9,7.9,16.4h0.2c2.2-5.2,5-10.4,8-16.4l11.4-22
			h11.7l-26.7,45.7v33.9H1586.7L1586.7,775.1z"/>
		<path class="st1" d="M1652,704.2h-24.2v-8.7h58.9v8.7h-24.3v70.8H1652L1652,704.2L1652,704.2z"/>
		<path class="st1" d="M1710,695.5v79.6h-10.3v-79.6H1710z"/>
		<path class="st1" d="M1733.8,775.1v-79.6h11.2l25.5,40.3c5.9,9.3,10.5,17.7,14.3,25.9l0.2-0.1c-0.9-10.6-1.2-20.3-1.2-32.7v-33.3
			h9.7V775h-10.4l-25.3-40.4c-5.6-8.8-10.9-18-14.9-26.6l-0.3,0.1c0.6,10,0.8,19.6,0.8,32.8v34H1733.8L1733.8,775.1z"/>
		<path class="st1" d="M1874.1,771.5c-4.6,1.7-13.7,4.4-24.4,4.4c-12,0-22-3.1-29.8-10.5c-6.8-6.6-11.1-17.2-11.1-29.6
			c0.1-23.7,16.4-41.1,43.1-41.1c9.2,0,16.4,2,19.8,3.7l-2.5,8.4c-4.2-1.9-9.6-3.4-17.6-3.4c-19.4,0-32,12-32,32
			s12.2,32.1,30.7,32.1c6.7,0,11.3-1,13.7-2.1v-23.7h-16.2v-8.3h26.2L1874.1,771.5L1874.1,771.5z"/>
		<line class="st2" x1="614.5" y1="287.4" x2="632.3" y2="297.7"/>
	</g>
</g>
</svg>
